<?xml version="1.0" encoding="utf-8"?>
<!-- Generator: Adobe Illustrator 24.0.1, SVG Export Plug-In . SVG Version: 6.00 Build 0)  -->
<svg version="1.1" id="Layer_1" xmlns="http://www.w3.org/2000/svg" xmlns:xlink="http://www.w3.org/1999/xlink" x="0px" y="0px"
	 viewBox="0 0 580.4 203.7" style="enable-background:new 0 0 580.4 203.7;" xml:space="preserve">
<style type="text/css">
	.st0{fill:#FFFFFF;}
	.st1{fill:url(#SVGID_1_);}
</style>
<g>
	<path class="st0" d="M69.4,203.4H55v-25.9h14.4v2.7H58v8.3h10.7v2.7H58v9.5h11.4V203.4z"/>
	<path class="st0" d="M93.5,177.5h3.2l-9.3,25.9h-3l-9.3-25.9h3.2l5.9,16.7c0.7,1.9,1.2,3.8,1.6,5.6c0.4-1.9,1-3.8,1.7-5.7
		L93.5,177.5z"/>
	<path class="st0" d="M118.3,203.4h-14.4v-25.9h14.4v2.7h-11.4v8.3h10.7v2.7h-10.7v9.5h11.4V203.4z"/>
	<path class="st0" d="M130.7,192.6v10.8h-3v-25.9h7.1c3.2,0,5.5,0.6,7,1.8s2.3,3,2.3,5.5c0,3.4-1.7,5.7-5.2,6.9l7,11.6h-3.6
		l-6.3-10.8L130.7,192.6L130.7,192.6z M130.7,190h4.1c2.1,0,3.7-0.4,4.7-1.3c1-0.8,1.5-2.1,1.5-3.8s-0.5-2.9-1.5-3.7
		s-2.6-1.1-4.9-1.1h-3.9L130.7,190L130.7,190z"/>
	<path class="st0" d="M160.3,190.4l6.9-12.9h3.3l-8.6,15.8v10h-3v-9.9l-8.6-16h3.3L160.3,190.4z"/>
	<path class="st0" d="M185.6,203.4h-3v-23.2h-8.2v-2.7h19.4v2.7h-8.2V203.4z"/>
	<path class="st0" d="M220.9,203.4h-3v-12.2h-13.6v12.2h-3v-25.9h3v11h13.6v-11h3V203.4z"/>
	<path class="st0" d="M231.6,203.4v-25.9h3v25.9H231.6z"/>
	<path class="st0" d="M265.6,203.4h-3.4L248,181.7h-0.1c0.2,2.5,0.3,4.9,0.3,7v14.7h-2.8v-25.9h3.4l14.1,21.6h0.1
		c0-0.3-0.1-1.3-0.2-3.1c-0.1-1.7-0.1-3-0.1-3.7v-14.8h2.8v25.9H265.6z"/>
	<path class="st0" d="M287.7,189.8h8.8v12.6c-1.4,0.4-2.8,0.8-4.2,1c-1.4,0.2-3.1,0.3-4.9,0.3c-3.9,0-7-1.2-9.1-3.5
		c-2.2-2.3-3.3-5.6-3.3-9.8c0-2.7,0.5-5,1.6-7.1c1.1-2,2.6-3.6,4.7-4.6c2-1.1,4.4-1.6,7.1-1.6c2.8,0,5.3,0.5,7.7,1.5l-1.2,2.7
		c-2.3-1-4.6-1.5-6.7-1.5c-3.1,0-5.6,0.9-7.4,2.8c-1.8,1.9-2.7,4.5-2.7,7.8c0,3.5,0.9,6.1,2.6,7.9c1.7,1.8,4.2,2.7,7.5,2.7
		c1.8,0,3.5-0.2,5.3-0.6v-8h-5.8V189.8z"/>
	<path class="st0" d="M322.3,203.4h-3v-25.9h14.4v2.7h-11.4v9.5H333v2.7h-10.7V203.4z"/>
	<path class="st0" d="M364.1,190.4c0,4.1-1,7.4-3.1,9.8c-2.1,2.4-5,3.6-8.7,3.6c-3.8,0-6.7-1.2-8.8-3.5c-2.1-2.3-3.1-5.6-3.1-9.9
		c0-4.2,1-7.5,3.1-9.8s5-3.5,8.8-3.5c3.7,0,6.6,1.2,8.7,3.5C363,183,364.1,186.3,364.1,190.4z M343.5,190.4c0,3.5,0.7,6.2,2.2,8
		s3.7,2.7,6.5,2.7c2.9,0,5-0.9,6.5-2.7s2.2-4.5,2.2-8s-0.7-6.1-2.2-7.9c-1.5-1.8-3.6-2.7-6.5-2.7s-5,0.9-6.5,2.7
		S343.5,186.9,343.5,190.4z"/>
	<path class="st0" d="M376.5,192.6v10.8h-3v-25.9h7.1c3.2,0,5.5,0.6,7,1.8s2.3,3,2.3,5.5c0,3.4-1.7,5.7-5.2,6.9l7,11.6h-3.6
		l-6.3-10.8L376.5,192.6L376.5,192.6z M376.5,190h4.1c2.1,0,3.7-0.4,4.7-1.3c1-0.8,1.5-2.1,1.5-3.8s-0.5-2.9-1.5-3.7
		s-2.6-1.1-4.9-1.1h-3.9L376.5,190L376.5,190z"/>
	<path class="st0" d="M432.2,203.4h-3v-12.2h-13.6v12.2h-3v-25.9h3v11h13.6v-11h3V203.4z"/>
	<path class="st0" d="M465.3,190.4c0,4.1-1,7.4-3.1,9.8c-2.1,2.4-5,3.6-8.7,3.6c-3.8,0-6.7-1.2-8.8-3.5c-2.1-2.3-3.1-5.6-3.1-9.9
		c0-4.2,1-7.5,3.1-9.8s5-3.5,8.8-3.5c3.7,0,6.6,1.2,8.7,3.5C464.3,183,465.3,186.3,465.3,190.4z M444.7,190.4c0,3.5,0.7,6.2,2.2,8
		s3.7,2.7,6.5,2.7c2.9,0,5-0.9,6.5-2.7s2.2-4.5,2.2-8s-0.7-6.1-2.2-7.9c-1.5-1.8-3.6-2.7-6.5-2.7s-5,0.9-6.5,2.7
		C445.5,184.3,444.7,186.9,444.7,190.4z"/>
	<path class="st0" d="M486.2,203.4l-8.8-22.9h-0.1c0.2,1.8,0.2,4,0.2,6.5v16.4h-2.8v-25.9h4.5l8.2,21.3h0.1l8.3-21.3h4.5v25.9h-3
		v-16.7c0-1.9,0.1-4,0.2-6.2h-0.1l-8.8,22.9H486.2z"/>
	<path class="st0" d="M525.5,203.4H511v-25.9h14.4v2.7H514v8.3h10.7v2.7H514v9.5h11.4L525.5,203.4L525.5,203.4z"/>
</g>
<linearGradient id="SVGID_1_" gradientUnits="userSpaceOnUse" x1="0" y1="49" x2="580.4" y2="49" gradientTransform="matrix(1 0 0 -1 0 206)">
	<stop  offset="0" style="stop-color:#FFFFFF;stop-opacity:0"/>
	<stop  offset="0.35" style="stop-color:#FFFFFF"/>
	<stop  offset="0.65" style="stop-color:#FFFFFF"/>
	<stop  offset="1" style="stop-color:#FFFFFF;stop-opacity:0"/>
</linearGradient>
<rect y="154.5" class="st1" width="580.4" height="5"/>
<g>
	<g>
		<path class="st0" d="M549.4,101.6c-0.5,0-1.7,1-3.5,3.1s-3.4,3.8-4.7,5.1c-6.8,6.8-11.5,11.1-14.2,12.9s-5.2,2.8-7.3,2.8
			c-0.9,0-1.7-0.3-2.3-1s-0.9-1.5-0.9-2.4c0-1.2,0.5-2.8,1.5-4.8s3.4-6.1,7.2-12.1l55.3-87.7L568.8,19l-35.4,55
			c-0.9,1.2-2.8,3.5-5.7,7c-3,3.4-6.2,7.1-9.9,11l-5.7,6.2c-1.6,1.9-2.7,3.2-3.3,4c0,0,0,0,0,0.1c-0.6,0.5-1.4,1.3-2.4,2.4
			c-1.8,2.1-3.4,3.8-4.7,5.1c-6.8,6.8-11.5,11.1-14.2,12.9s-5.2,2.8-7.3,2.8c-0.9,0-1.7-0.3-2.3-1c-0.6-0.7-0.9-1.5-0.9-2.4
			c0-1.2,0.5-2.8,1.5-4.8s3.4-6.1,7.2-12.1L541,17.5L529.3,19l-35.5,55c-0.9,1.2-2.8,3.5-5.7,7c-3,3.4-6.2,7.1-9.9,11l-5.7,6.2
			c-1.6,1.8-2.7,3.1-3.2,4c-0.6,0.5-1.4,1.3-2.5,2.5c-1.8,2-3.5,3.8-4.9,5.2c-4.9,5.1-9,8.9-12.2,11.4s-5.6,3.8-7.1,3.8
			c-1,0-1.7-0.2-2.1-0.7c-0.4-0.4-0.6-1.2-0.6-2.1c0-1.3,0.4-2.8,1.1-4.6c0.8-1.8,2.6-4.9,5.5-9.5l19.7-31l-11.8,0.7L447,88.7
			c0.2-0.8,0.4-1.5,0.5-2.1s0.2-1.3,0.2-1.8c0-2.5-0.9-4.5-2.6-6s-4-2.3-6.9-2.3c-4.7,0-9.8,1.5-15.5,4.6c-5.6,3.1-11.3,7.4-16.9,13
			c-2.6,2.6-4.6,4.9-6.1,6.7c-0.4,0.5-0.8,1-1.1,1.4c-0.8,0.6-1.9,1.7-3.5,3.4c-1.6,1.8-2.9,3.2-3.9,4.3c-5.4,5.7-9.7,9.8-12.9,12.1
			c-3.2,2.4-5.9,3.6-8.2,3.6c-0.8,0-1.5-0.4-2.1-1.1s-0.9-1.5-0.9-2.4c0-1.2,0.5-2.8,1.5-4.8s3.4-6.1,7.2-12.1l17.8-28L381,78.1
			c-7.2,7.5-12.9,13.5-16.8,18.1c-2.6,3-4.3,5.1-5.2,6.4c-0.8,0.7-1.9,1.7-3.3,3.1c-3,2.9-6,4.3-9,4.3c-1.3,0-2.4-0.4-3.2-1.3
			c-0.8-0.9-1.3-2-1.3-3.5c0-2.7,0.6-5.1,1.7-7.2s3-4.1,5.7-6c0.6-0.5,1.5-1.1,2.7-2c7-5.1,10.4-8.7,10.4-10.8
			c0-0.8-0.4-1.5-1.2-2.1c-0.8-0.6-1.8-0.8-2.9-0.8c-3.3,0-6,1.1-8.1,3.3c-2.1,2.2-4.3,6.3-6.6,12.4c-3.7,3.2-8.8,7.9-15.2,14.1
			l-0.2,0.2c3.6-6,5.9-10.5,7-13.5s1.6-5.9,1.6-8.8c0-2.2-0.7-4.1-2-5.5c-1.3-1.5-3-2.2-5-2.2c-2.5,0-5.2,1.1-8.1,3.2
			c-3,2.1-7.3,6.3-13.1,12.5l-5.7,6.2c-1.6,1.8-2.7,3.1-3.2,4c-0.6,0.5-1.4,1.3-2.5,2.5c-1.8,2-3.5,3.8-4.9,5.2
			c-4.9,5.1-9,8.9-12.2,11.4s-5.6,3.8-7.1,3.8c-1,0-1.7-0.2-2.1-0.7c-0.4-0.4-0.6-1.2-0.6-2.1c0-1.3,0.4-2.8,1.1-4.6
			c0.8-1.8,2.6-4.9,5.5-9.5l19.7-31l-11.8,0.7l-7.4,10.8c0.2-0.8,0.4-1.5,0.5-2.1s0.2-1.3,0.2-1.8c0-2.5-0.9-4.5-2.6-6
			s-4-2.3-6.9-2.3c-4.7,0-9.8,1.5-15.5,4.6c-5.6,3.1-11.3,7.4-16.9,13c-2.6,2.6-4.6,4.9-6.1,6.7c-0.5,0.6-0.9,1.1-1.2,1.5
			c-0.6,0.5-1.3,1.2-2.2,2.3c-0.9,1.1-1.6,2-2.3,2.7c-4.9,5.4-9.3,9.4-13.2,12.1s-7.2,4-9.9,4c-1.2,0-2.2-0.4-3-1.3
			c-0.8-0.8-1.3-1.9-1.3-3c0-6,3.6-16.4,10.6-31.3c7.1-14.9,16.8-32.1,29-51.4c3.9-6.1,8.7-13.5,14.4-22.1
			c5.4-8.2,8.1-12.7,8.1-13.5c0-0.2,0-0.4-0.1-0.4c-0.1-0.1-0.1-0.1-0.3-0.1c-2.3,0-7.8,4.1-16.7,12.4s-19.4,19.3-31.8,33
			c-11,12.3-23.5,27-37.6,44.1s-22.1,25.6-24.1,25.6c-0.2,0-0.4-0.1-0.5-0.3c-0.1-0.2-0.2-0.5-0.2-1.1c0-3.3,3.2-11.2,9.7-23.7
			s14.9-26.9,25.3-43.2c6.1-9.6,11.2-17.3,15.4-23.2s8-10.6,11.3-14.3c0.6-0.7,1.6-1.7,2.8-2.9c2.7-2.8,4-4.8,4-6
			c0-0.2-0.1-0.3-0.2-0.5C216.3,0.1,216.2,0,216,0c-2.4,0-9.2,4.4-20.3,13.3c-11.2,8.9-23.2,19.7-36,32.6
			c-7.3,7.3-17.4,18.1-30.2,32.3c-12.9,14.2-22.3,24-28.5,29.3c-7.3,6.3-14.1,10.8-20.5,13.5s-13.2,4-20.6,4
			c-11.3,0-20.7-3.1-28-9.2s-11-13.8-11-23c0-9.8,4.1-17.8,12.3-24c8.2-6.3,18.9-9.4,31.9-9.4c9.1,0,16.3,2,21.8,6.1s8.2,9.4,8.2,16
			c0,6.9-3.2,12.9-9.5,17.9c-6.3,5.1-14,7.6-23.1,7.6c-8.2,0-16.2-2.5-23.7-7.4c-1.2-0.8-1.9-1.1-2.1-1.1c-0.3,0-0.5,0.1-0.6,0.3
			C36,99,36,99.3,36,99.7c0,1.7,2.8,3.7,8.3,6.1s11.4,3.6,17.6,3.6c10.5,0,19.3-3,26.4-8.9c7.1-6,10.6-13.1,10.6-21.6
			c0-8-3.2-14.6-9.6-19.7s-14.6-7.7-24.7-7.7c-13.2,0-24.3,3.8-33.4,11.4s-13.6,17-13.6,28.2c0,10.9,3.9,19.7,11.8,26.5
			s18.2,10.2,30.9,10.2c6.8,0,13.5-1.3,19.8-3.9c6.4-2.6,13-6.6,19.9-12.1c6.1-5,18.1-17.2,35.8-36.7c3.9-4.3,6.9-7.5,9-9.8
			c10.7-11.7,21.1-22.2,31.2-31.5c10-9.2,20.1-17.5,30.1-24.9c-22.3,23-39.8,44.3-52.8,63.9c-12.9,19.6-19.4,34.4-19.4,44.5
			c0,2.9,0.5,5.2,1.4,6.7s2.2,2.3,3.9,2.3c4.4,0,15.9-11.2,34.4-33.7c4.7-5.7,8.3-10.1,11-13.3c16.6-19.9,29.3-34.6,38.1-44.1
			s16.4-16.8,22.6-21.7c-20.9,25.5-36,46-45.2,61.7c-9.2,15.6-13.8,28.3-13.8,37.9c0,4.4,1.1,7.9,3.3,10.7c2.2,2.7,5,4.1,8.5,4.1
			c3.4,0,7.2-1.3,11.3-3.9s9.1-6.8,14.7-12.5c2.6-2.7,4.4-4.7,5.3-5.9c0.4-0.5,0.6-0.8,0.8-1.2l0.1-0.1c0.6-0.6,1.3-1.5,2-2.6
			c-0.4,1.3-0.6,2.7-0.8,4.1s-0.3,2.8-0.3,4.2c0,5.7,0.9,10.2,2.8,13.5c1.8,3.2,4.4,4.9,7.6,4.9c3.3,0,6.9-1.3,10.7-4
			s7.8-6.6,11.9-11.8c-0.4,1.9-0.6,3.3-0.7,4.3s-0.2,1.8-0.2,2.6c0,2.9,0.6,5.1,1.9,6.7c1.3,1.5,3.1,2.3,5.5,2.3
			c2.6,0,5.4-1,8.5-2.9c3-2,7.7-6.2,14-12.7c2.8-2.8,4.9-5,6.2-6.7c0.4-0.5,0.8-1,1.1-1.4c0.7-0.6,1.7-1.6,3.1-3.2
			c1.7-2,3.2-3.7,4.4-5c6-6.4,10.5-10.8,13.5-13.2c3.1-2.5,5.6-3.7,7.5-3.7c0.9,0,1.5,0.2,1.9,0.6s0.6,1,0.6,1.8
			c0,1.5-1.7,4.7-5,9.6l-0.7,1.1l-23.3,34.8l12.5-1.2c5.6-7,10.5-12.9,14.8-17.6s8.2-8.5,11.8-11.5c-0.8,2.2-1.4,3.9-1.8,5.3
			c-0.4,1.3-0.5,2.5-0.5,3.3c0,2.3,0.6,4,1.9,5.2s3.2,1.8,5.6,1.8c2.7,0,5.7-1.3,9.2-4c3-2.3,4.6-4.1,5-5.5c1-1,2.3-2.4,4-4.3
			c3.5-4,6.9-7.6,10.2-10.9c-0.5,0.8-1.2,1.9-2.1,3.3c-8.3,12.5-12.4,21-12.4,25.6c0,3.4,0.9,6.2,2.7,8.2c1.8,2,4.1,3.1,7.1,3.1
			c2.4,0,5.1-1.1,8.2-3.2s7.7-6.3,13.7-12.4c3.5-3.6,5.8-6,6.7-7.3c0.3-0.3,0.4-0.5,0.6-0.8c0.2-0.1,0.3-0.2,0.5-0.4
			c0.6-0.6,1.3-1.5,2-2.6c-0.4,1.3-0.6,2.7-0.8,4.1c-0.2,1.4-0.3,2.8-0.3,4.2c0,5.7,0.9,10.2,2.8,13.5c1.8,3.2,4.4,4.9,7.6,4.9
			c3.3,0,6.9-1.3,10.7-4c3.8-2.7,7.8-6.6,11.9-11.8c-0.4,1.9-0.6,3.3-0.7,4.3s-0.2,1.8-0.2,2.6c0,2.9,0.6,5.1,1.9,6.7
			c1.3,1.5,3.1,2.3,5.5,2.3c2.6,0,5.4-1,8.5-2.9c3-2,7.7-6.2,14-12.7c2.8-2.8,4.9-5,6.2-6.7c0.5-0.6,0.8-1.1,1.2-1.5
			c1-0.9,2.7-2.6,5.1-5.4c3.4-4,6.8-7.7,10-11L484,90c-8.6,13-13,21.9-13,26.6c0,3.4,0.9,6.2,2.7,8.2c1.8,2,4.1,3.1,7.1,3.1
			c2.4,0,5.1-1.1,8.2-3.2s7.7-6.3,13.7-12.4c3.5-3.6,5.8-6,6.7-7.3c0.4-0.6,0.8-1,1-1.4c1.1-1,2.5-2.6,4.5-4.9c3.4-4,6.8-7.7,10-11
			l-1.4,2.3c-8.6,13-13,21.9-13,26.6c0,3.4,0.9,6.2,2.7,8.2c1.8,2,4.1,3.1,7.1,3.1c2.4,0,5.1-1.1,8.2-3.2c3.1-2.1,7.7-6.3,13.7-12.4
			c3.5-3.6,5.8-6,6.7-7.3c1-1.2,1.5-2.1,1.5-2.6c0-0.2-0.1-0.4-0.3-0.6C549.9,101.7,549.7,101.6,549.4,101.6z M413,124.7
			c-1.3,0-2.4-0.5-3.2-1.5c-0.8-1-1.1-2.3-1.1-4c0-3.2,0.9-7,2.8-11.7c1.9-4.6,4.4-9.2,7.7-13.8c3.4-4.6,6.8-8.2,10.3-10.7
			c3.4-2.5,6.6-3.8,9.6-3.8c1.6,0,3,0.5,4.2,1.6c1.1,1.1,1.7,2.4,1.7,4c0,3.7-1.3,8-4,13.1s-6.4,10.2-11.3,15.6
			c-3.2,3.6-6.3,6.3-9.2,8.3C417.4,123.7,414.9,124.7,413,124.7z M243.5,124.7c-1.3,0-2.4-0.5-3.2-1.5s-1.1-2.3-1.1-4
			c0-3.2,0.9-7,2.8-11.7c1.9-4.6,4.4-9.2,7.7-13.8c3.4-4.6,6.8-8.2,10.3-10.7c3.4-2.5,6.6-3.8,9.6-3.8c1.6,0,3,0.5,4.2,1.6
			c1.1,1.1,1.7,2.4,1.7,4c0,3.7-1.3,8-4,13.1s-6.4,10.2-11.3,15.6c-3.2,3.6-6.3,6.3-9.2,8.3C247.9,123.7,245.5,124.7,243.5,124.7z"
			/>
		<path class="st0" d="M402.5,54.2c1.8,0,3.4-0.9,4.9-2.6c1.5-1.7,2.2-3.6,2.2-5.6c0-1.5-0.4-2.8-1.3-3.7c-0.9-1-2-1.4-3.5-1.4
			c-1.8,0-3.5,0.9-5,2.6c-1.5,1.7-2.3,3.6-2.3,5.5c0,1.5,0.5,2.8,1.4,3.8C399.9,53.8,401.1,54.2,402.5,54.2z"/>
	</g>
	<path class="st0" d="M57.8,137.5c0,0-0.9,0-2.7,0.1s-4.4,0.1-7.7-0.1c-3.3-0.2-7.3-0.7-11.9-1.7c-4.5-1.1-9.6-2.8-14.7-5.7
		c-5.1-2.9-10.1-7.3-13.9-13s-6.2-12.8-6.7-20.3C-0.4,89.3,1,81.5,3.9,74.2c2.9-7.3,7.4-14.1,13.1-19.7s12.5-10,19.8-12.9
		c7.3-3,15-4.3,22.4-4.5s14.6,0.8,20.9,2.1c6.4,1.3,12.3,2.7,17.7,3.6c5.4,0.9,10.4,1.3,14.8,0.9c4.4-0.4,8.1-1.4,11-2.8
		c2.9-1.4,5-2.8,6.5-3.8c1.4-1.1,2.2-1.7,2.2-1.7s-0.6,0.7-1.8,2.1c-1.2,1.3-3.1,3.2-5.9,5.1c-2.8,1.9-6.6,3.8-11.4,4.8
		c-4.7,1-10.2,1.2-16,0.7c-5.8-0.4-11.9-1.6-18.2-2.6c-6.4-0.9-12.8-2-19.6-1.6c-6.7,0.2-13.6,1.6-20.1,4.1s-12.6,6.4-17.7,11.3
		s-9.3,10.8-12,17.2c-2.8,6.4-4.1,13.3-4,19.9s2,12.9,5.1,18.2s7.3,9.5,11.8,12.5c4.5,3.1,9.2,5.1,13.5,6.6
		c4.3,1.4,8.2,2.2,11.4,2.7c3.2,0.5,5.8,0.8,7.6,0.9S57.8,137.5,57.8,137.5z"/>
</g>
</svg>
